<?xml version="1.0" encoding="UTF-8" standalone="no"?>
<!DOCTYPE svg PUBLIC "-//W3C//DTD SVG 1.1//EN" "http://www.w3.org/Graphics/SVG/1.1/DTD/svg11.dtd">
<svg width="100%" height="100%" viewBox="0 0 284 82" version="1.1" xmlns="http://www.w3.org/2000/svg" xmlns:xlink="http://www.w3.org/1999/xlink" xml:space="preserve" xmlns:serif="http://www.serif.com/" style="fill-rule:evenodd;clip-rule:evenodd;stroke-linejoin:round;stroke-miterlimit:2;">
    <g transform="matrix(1,0,0,1,-2246.21,-114.835)">
        <g transform="matrix(1.07351,0,0,1.07351,589.929,-823.585)">
            <path d="M1545.64,885.745C1547.61,885.094 1549.46,884.492 1551.19,883.939C1552.93,883.385 1554.75,882.86 1556.67,882.364C1558.59,881.868 1560.43,881.473 1562.19,881.18C1563.54,880.952 1564.92,880.838 1566.34,880.838C1568.7,880.838 1570.25,880.903 1570.98,881.033C1572.09,881.245 1573.13,881.587 1574.12,882.059C1575.1,882.531 1575.98,883.161 1576.75,883.951C1577.53,884.74 1578.16,885.672 1578.65,886.746C1578.84,887.186 1578.94,887.65 1578.94,888.138C1578.94,889.961 1577.94,892.207 1575.95,894.876C1573.95,897.545 1571.95,899.873 1569.94,901.859C1567.93,903.844 1566.43,905.268 1565.44,906.131L1569.83,921.536L1563.44,926.151L1552.23,894.144C1552.2,894.144 1552.04,894.298 1551.77,894.608C1551.49,894.917 1551.13,895.32 1550.68,895.816C1550.23,896.312 1549.95,896.618 1549.84,896.732C1549.79,896.732 1549.63,896.382 1549.36,895.682C1549.09,894.982 1548.74,894.009 1548.29,892.764C1547.84,891.519 1547.34,890.136 1546.77,888.614C1546.21,887.092 1545.83,886.136 1545.64,885.745ZM1561.43,892.532L1563.44,899.735C1564.44,898.709 1565.7,897.309 1567.2,895.535C1568.69,893.761 1569.44,892.475 1569.44,891.678C1569.44,891.369 1569.31,891.19 1569.05,891.141C1568.32,890.978 1567.6,890.897 1566.88,890.897C1564.73,890.897 1562.91,891.442 1561.43,892.532Z" style="fill:rgb(255,220,0);fill-rule:nonzero;"/>
            <path d="M1551.07,899.216C1550.69,899.404 1550.27,899.504 1549.84,899.504C1549.34,899.504 1548.6,899.409 1547.87,898.693C1547.74,898.566 1547.26,897.949 1546.77,896.675C1546.5,895.962 1546.13,894.971 1545.68,893.702C1545.23,892.464 1544.73,891.088 1544.17,889.574C1543.67,888.202 1543.33,887.337 1543.16,886.985C1542.8,886.265 1542.77,885.424 1543.08,884.681C1543.39,883.938 1544,883.365 1544.77,883.113C1546.75,882.458 1548.61,881.853 1550.35,881.297C1552.13,880.729 1554.01,880.189 1555.98,879.679C1557.98,879.162 1559.9,878.751 1561.73,878.445C1563.23,878.192 1564.77,878.065 1566.34,878.065C1568.95,878.065 1570.66,878.16 1571.47,878.303C1571.48,878.306 1571.49,878.308 1571.5,878.31C1572.85,878.567 1574.12,878.984 1575.32,879.558C1576.59,880.17 1577.73,880.987 1578.74,882.011C1579.73,883.025 1580.54,884.219 1581.17,885.599C1581.17,885.606 1581.18,885.613 1581.18,885.62C1581.53,886.415 1581.71,887.254 1581.71,888.138C1581.71,890.391 1580.63,893.235 1578.17,896.535C1576.09,899.325 1573.99,901.756 1571.89,903.831C1570.58,905.132 1569.47,906.197 1568.58,907.029L1572.5,920.776C1572.82,921.899 1572.4,923.102 1571.45,923.785L1565.06,928.399C1564.35,928.911 1563.44,929.058 1562.61,928.796C1561.77,928.533 1561.11,927.893 1560.82,927.067L1551.07,899.216ZM1545.64,885.745C1545.83,886.136 1546.21,887.092 1546.77,888.614C1547.34,890.136 1547.84,891.519 1548.29,892.764C1548.74,894.009 1549.09,894.982 1549.36,895.682C1549.63,896.382 1549.79,896.732 1549.84,896.732C1549.95,896.618 1550.23,896.312 1550.68,895.816C1551.13,895.32 1551.49,894.917 1551.77,894.608C1552.04,894.298 1552.2,894.144 1552.23,894.144L1563.44,926.151L1569.83,921.536L1565.44,906.131C1566.43,905.268 1567.93,903.844 1569.94,901.859C1571.95,899.873 1573.95,897.545 1575.95,894.876C1577.94,892.207 1578.94,889.961 1578.94,888.138C1578.94,887.65 1578.84,887.186 1578.65,886.746C1578.16,885.672 1577.53,884.74 1576.75,883.951C1575.98,883.161 1575.1,882.531 1574.12,882.059C1573.13,881.587 1572.09,881.245 1570.98,881.033C1570.25,880.903 1568.7,880.838 1566.34,880.838C1564.92,880.838 1563.54,880.952 1562.19,881.18C1560.43,881.473 1558.59,881.868 1556.67,882.364C1554.75,882.86 1552.93,883.385 1551.19,883.939C1549.46,884.492 1547.61,885.094 1545.64,885.745ZM1561.43,892.532C1562.91,891.442 1564.73,890.897 1566.88,890.897C1567.6,890.897 1568.32,890.978 1569.05,891.141C1569.31,891.19 1569.44,891.369 1569.44,891.678C1569.44,892.475 1568.69,893.761 1567.2,895.535C1565.7,897.309 1564.44,898.709 1563.44,899.735L1561.43,892.532ZM1564.95,893.893C1564.87,893.914 1564.79,893.936 1564.71,893.961C1564.71,893.961 1564.76,894.127 1564.76,894.127C1564.82,894.05 1564.89,893.972 1564.95,893.893Z" style="fill:url(#_Linear1);"/>
            <path d="M1597.27,898.099C1598.43,898.717 1599.37,899.551 1600.09,900.601C1600.82,901.651 1601.35,902.831 1601.68,904.141C1602.01,905.451 1602.18,906.815 1602.18,908.231C1602.18,909.403 1602.09,910.534 1601.9,911.624C1601.71,912.715 1601.46,913.716 1601.13,914.627C1600.81,915.539 1600.42,916.312 1599.98,916.946C1598.96,918.476 1597.86,919.795 1596.69,920.902C1595.52,922.008 1594.32,922.899 1593.1,923.575C1591.88,924.25 1590.67,924.747 1589.47,925.064C1588.28,925.382 1587.09,925.54 1585.92,925.54C1584.54,925.54 1583.22,925.325 1581.98,924.893C1580.73,924.462 1579.67,923.896 1578.79,923.196C1577.34,921.992 1576.21,920.368 1575.4,918.326C1574.59,916.283 1574.18,914.123 1574.18,911.844C1574.18,907.921 1575.31,904.756 1577.57,902.347C1579.51,900.28 1581.51,898.721 1583.58,897.672C1585.64,896.622 1587.76,896.097 1589.92,896.097C1591.19,896.097 1592.42,896.256 1593.59,896.573C1594.76,896.89 1595.99,897.399 1597.27,898.099ZM1595.83,902.2C1595.56,903.437 1594.96,904.528 1594.04,905.472C1593.12,906.416 1592.22,906.888 1591.34,906.888C1590.9,906.888 1590.51,906.774 1590.17,906.546C1589.68,906.155 1589.44,905.472 1589.44,904.495C1589.44,903.747 1589.68,903.006 1590.18,902.274C1590.68,901.541 1591.46,900.963 1592.54,900.54C1591.46,900.54 1590.43,900.744 1589.42,901.151C1588.42,901.557 1587.57,902.082 1586.85,902.725C1586.13,903.368 1585.56,904.092 1585.13,904.898C1584.7,905.704 1584.48,906.514 1584.48,907.327C1584.48,908.841 1585.18,910.045 1586.58,910.941C1587.88,911.771 1589.12,912.186 1590.29,912.186C1591.45,912.186 1592.47,911.799 1593.37,911.026C1594.26,910.253 1594.95,909.26 1595.42,908.048C1595.89,906.835 1596.13,905.635 1596.13,904.446C1596.13,903.633 1596.03,902.884 1595.83,902.2Z" style="fill:rgb(255,220,0);fill-rule:nonzero;"/>
            <path d="M1598.59,895.659C1600.14,896.491 1601.4,897.616 1602.38,899.027C1603.28,900.341 1603.95,901.816 1604.37,903.457C1604.76,904.987 1604.95,906.578 1604.95,908.231C1604.95,909.565 1604.85,910.852 1604.63,912.093C1604.42,913.352 1604.12,914.507 1603.74,915.56C1603.33,916.718 1602.83,917.697 1602.28,918.506C1601.13,920.213 1599.9,921.682 1598.59,922.917C1597.24,924.196 1595.85,925.221 1594.44,926.001C1593.01,926.794 1591.59,927.372 1590.18,927.744C1588.75,928.125 1587.33,928.313 1585.92,928.313C1584.22,928.313 1582.6,928.044 1581.07,927.513C1579.5,926.97 1578.17,926.247 1577.07,925.366C1577.05,925.353 1577.04,925.341 1577.02,925.329C1575.24,923.847 1573.82,921.865 1572.82,919.352C1571.88,916.986 1571.41,914.484 1571.41,911.844C1571.41,907.128 1572.83,903.346 1575.55,900.449C1577.73,898.122 1580,896.381 1582.32,895.199C1584.8,893.942 1587.33,893.324 1589.92,893.324C1591.45,893.324 1592.91,893.516 1594.31,893.897C1595.67,894.265 1597.1,894.848 1598.59,895.659ZM1597.27,898.099C1595.99,897.399 1594.76,896.89 1593.59,896.573C1592.42,896.256 1591.19,896.097 1589.92,896.097C1587.76,896.097 1585.64,896.622 1583.58,897.672C1581.51,898.721 1579.51,900.28 1577.57,902.347C1575.31,904.756 1574.18,907.921 1574.18,911.844C1574.18,914.123 1574.59,916.283 1575.4,918.326C1576.21,920.368 1577.34,921.992 1578.79,923.196C1579.67,923.896 1580.73,924.462 1581.98,924.893C1583.22,925.325 1584.54,925.54 1585.92,925.54C1587.09,925.54 1588.28,925.382 1589.47,925.064C1590.67,924.747 1591.88,924.25 1593.1,923.575C1594.32,922.899 1595.52,922.008 1596.69,920.902C1597.86,919.795 1598.96,918.476 1599.98,916.946C1600.42,916.312 1600.81,915.539 1601.13,914.627C1601.46,913.716 1601.71,912.715 1601.9,911.624C1602.09,910.534 1602.18,909.403 1602.18,908.231C1602.18,906.815 1602.01,905.451 1601.68,904.141C1601.35,902.831 1600.82,901.651 1600.09,900.601C1599.37,899.551 1598.43,898.717 1597.27,898.099ZM1595.83,902.2C1596.03,902.884 1596.13,903.633 1596.13,904.446C1596.13,905.635 1595.89,906.835 1595.42,908.048C1594.95,909.26 1594.26,910.253 1593.37,911.026C1592.47,911.799 1591.45,912.186 1590.29,912.186C1589.12,912.186 1587.88,911.771 1586.58,910.941C1585.18,910.045 1584.48,908.841 1584.48,907.327C1584.48,906.514 1584.7,905.704 1585.13,904.898C1585.56,904.092 1586.13,903.368 1586.85,902.725C1587.57,902.082 1588.42,901.557 1589.42,901.151C1590.43,900.744 1591.46,900.54 1592.54,900.54C1591.46,900.963 1590.68,901.541 1590.18,902.274C1589.68,903.006 1589.44,903.747 1589.44,904.495C1589.44,905.472 1589.68,906.155 1590.17,906.546C1590.51,906.774 1590.9,906.888 1591.34,906.888C1592.22,906.888 1593.12,906.416 1594.04,905.472C1594.96,904.528 1595.56,903.437 1595.83,902.2ZM1589.31,909.232C1589.08,909.125 1588.85,908.999 1588.63,908.853C1588.57,908.809 1588.5,908.761 1588.44,908.711C1587.97,908.338 1587.56,907.857 1587.26,907.251C1587.25,907.276 1587.25,907.302 1587.25,907.327C1587.25,907.877 1587.57,908.279 1588.07,908.604C1588.5,908.877 1588.91,909.092 1589.31,909.232Z" style="fill:url(#_Linear2);"/>
            <path d="M1598.13,883.743L1610.53,878.543L1610.53,886.551L1617.12,879.544L1625.52,886.551L1613.53,903.934L1638.53,923.148L1639.12,932.938L1613.73,919.144L1614.34,931.131L1602.72,931.351L1600.52,888.944L1596.93,889.749L1598.13,883.743Z" style="fill:rgb(255,220,0);fill-rule:nonzero;"/>
            <path d="M1597.06,881.186L1609.46,875.986C1610.32,875.627 1611.29,875.72 1612.07,876.234C1612.84,876.748 1613.3,877.615 1613.3,878.543L1613.3,879.557L1615.1,877.644C1616.11,876.576 1617.77,876.475 1618.9,877.415L1627.3,884.422C1628.4,885.34 1628.62,886.945 1627.8,888.125L1617.31,903.34L1640.22,920.949C1640.86,921.439 1641.25,922.18 1641.3,922.982L1641.89,932.772C1641.95,933.778 1641.46,934.737 1640.61,935.277C1639.76,935.818 1638.68,935.855 1637.8,935.374L1616.75,923.94L1617.11,930.99C1617.15,931.74 1616.88,932.473 1616.37,933.022C1615.86,933.571 1615.14,933.889 1614.39,933.903L1602.77,934.123C1601.28,934.151 1600.03,932.988 1599.95,931.494C1599.95,931.494 1597.92,892.369 1597.92,892.369L1597.54,892.455C1596.62,892.66 1595.67,892.389 1595,891.733C1594.32,891.078 1594.03,890.128 1594.21,889.208L1595.41,883.202C1595.59,882.298 1596.21,881.543 1597.06,881.186ZM1598.13,883.743L1596.93,889.749L1600.52,888.944L1602.72,931.351L1614.34,931.131L1613.73,919.144L1639.12,932.938L1638.53,923.148L1613.53,903.934L1625.52,886.551L1617.12,879.544L1610.53,886.551L1610.53,878.543L1598.13,883.743Z" style="fill:url(#_Linear3);"/>
            <path d="M1650.13,911.038L1656.01,918.143C1655.54,919.51 1654.42,920.763 1652.66,921.903C1650.89,923.042 1648.79,923.941 1646.36,924.6C1643.92,925.259 1641.5,925.589 1639.07,925.589C1636.92,925.589 1635.01,925.304 1633.32,924.735C1631.64,924.165 1630.34,923.302 1629.43,922.147C1627.85,920.161 1627.06,917.622 1627.06,914.529C1627.06,912.088 1627.5,909.683 1628.39,907.315C1629.28,904.947 1630.22,903.291 1631.21,902.347C1632.4,901.224 1633.69,900.288 1635.08,899.539C1636.47,898.791 1637.91,898.229 1639.41,897.855C1640.91,897.48 1642.45,897.293 1644.03,897.293C1646.09,897.293 1648.06,897.623 1649.92,898.282C1651.79,898.941 1653.42,899.897 1654.82,901.151L1641.41,917.142C1642.6,917.142 1643.73,916.894 1644.8,916.397C1645.86,915.901 1646.84,915.193 1647.74,914.273C1648.63,913.354 1649.43,912.275 1650.13,911.038ZM1643.37,905.35C1642.57,904.943 1641.76,904.739 1640.93,904.739C1640.05,904.739 1639.2,904.918 1638.38,905.277C1637.55,905.635 1636.97,906.058 1636.63,906.546C1635.62,907.848 1635.12,909.28 1635.12,910.843C1635.12,911.413 1635.17,911.958 1635.29,912.479C1635.4,913 1635.6,913.716 1635.87,914.627L1643.37,905.35ZM1630.82,887.747L1643.83,880.545L1649.42,889.139L1633.63,892.142L1630.82,887.747Z" style="fill:rgb(255,220,0);fill-rule:nonzero;"/>
            <path d="M1651.92,908.922C1652.05,909.027 1652.16,909.143 1652.27,909.27L1658.15,916.374C1658.77,917.12 1658.95,918.133 1658.63,919.048C1657.99,920.905 1656.56,922.684 1654.16,924.232C1652.17,925.513 1649.82,926.535 1647.08,927.277C1644.41,928.001 1641.74,928.362 1639.07,928.362C1636.59,928.362 1634.38,928.019 1632.43,927.361C1630.18,926.6 1628.47,925.412 1627.26,923.869C1625.32,921.429 1624.29,918.329 1624.29,914.529C1624.29,911.759 1624.79,909.03 1625.79,906.343C1626.87,903.46 1628.09,901.486 1629.3,900.337L1629.31,900.332C1630.67,899.038 1632.16,897.96 1633.77,897.097C1635.36,896.238 1637.02,895.594 1638.74,895.165C1640.46,894.736 1642.22,894.52 1644.03,894.52C1646.42,894.52 1648.69,894.905 1650.85,895.668C1653.06,896.452 1655,897.594 1656.67,899.085C1657.78,900.083 1657.9,901.785 1656.94,902.932L1651.92,908.922ZM1650.13,911.038C1649.43,912.275 1648.63,913.354 1647.74,914.273C1646.84,915.193 1645.86,915.901 1644.8,916.397C1643.73,916.894 1642.6,917.142 1641.41,917.142L1654.82,901.151C1653.42,899.897 1651.79,898.941 1649.92,898.282C1648.06,897.623 1646.09,897.293 1644.03,897.293C1642.45,897.293 1640.91,897.48 1639.41,897.855C1637.91,898.229 1636.47,898.791 1635.08,899.539C1633.69,900.288 1632.4,901.224 1631.21,902.347C1630.22,903.291 1629.28,904.947 1628.39,907.315C1627.5,909.683 1627.06,912.088 1627.06,914.529C1627.06,917.622 1627.85,920.161 1629.43,922.147C1630.34,923.302 1631.64,924.165 1633.32,924.735C1635.01,925.304 1636.92,925.589 1639.07,925.589C1641.5,925.589 1643.92,925.259 1646.36,924.6C1648.79,923.941 1650.89,923.042 1652.66,921.903C1654.42,920.763 1655.54,919.51 1656.01,918.143L1650.13,911.038ZM1643.37,905.35L1635.87,914.627C1635.6,913.716 1635.4,913 1635.29,912.479C1635.17,911.958 1635.12,911.413 1635.12,910.843C1635.12,909.28 1635.62,907.848 1636.63,906.546C1636.97,906.058 1637.55,905.635 1638.38,905.277C1639.2,904.918 1640.05,904.739 1640.93,904.739C1641.76,904.739 1642.57,904.943 1643.37,905.35ZM1629.48,885.321L1642.49,878.119C1643.76,877.415 1645.36,877.814 1646.16,879.033L1651.75,887.627C1652.25,888.401 1652.34,889.376 1651.97,890.226C1651.61,891.077 1650.85,891.69 1649.94,891.863L1634.14,894.866C1633.03,895.077 1631.9,894.59 1631.29,893.635L1628.48,889.24C1628.07,888.595 1627.94,887.808 1628.13,887.066C1628.32,886.323 1628.81,885.692 1629.48,885.321ZM1630.82,887.747L1633.63,892.142L1649.42,889.139L1643.83,880.545L1630.82,887.747Z" style="fill:url(#_Linear4);"/>
            <path d="M1680.21,931.351L1678.23,894.534L1674.81,895.145L1675.42,883.548L1705.01,879.129L1705.62,889.749L1688.83,892.532L1689.22,900.15L1701.82,898.148L1702.42,906.937L1689.63,909.329L1691.02,931.351C1690.44,931.432 1689.45,931.542 1688.07,931.68C1686.69,931.819 1685.42,931.888 1684.26,931.888C1682.44,931.888 1681.09,931.709 1680.21,931.351Z" style="fill:rgb(255,220,0);fill-rule:nonzero;"/>
            <path d="M1677.44,931.499L1675.63,897.815L1675.3,897.874C1674.47,898.023 1673.61,897.783 1672.98,897.223C1672.34,896.663 1672,895.844 1672.04,894.999L1672.65,883.402C1672.72,882.086 1673.71,881 1675.01,880.806L1704.6,876.387C1705.37,876.272 1706.16,876.486 1706.76,876.978C1707.37,877.469 1707.74,878.192 1707.78,878.97L1708.39,889.59C1708.47,891.005 1707.48,892.253 1706.08,892.485L1691.72,894.863C1691.72,894.863 1691.83,896.927 1691.83,896.927L1701.38,895.409C1702.15,895.287 1702.93,895.493 1703.54,895.978C1704.15,896.462 1704.53,897.18 1704.58,897.956L1705.19,906.745C1705.29,908.149 1704.32,909.403 1702.93,909.662L1692.55,911.604L1693.79,931.176C1693.88,932.624 1692.84,933.898 1691.4,934.097C1690.8,934.181 1689.78,934.296 1688.35,934.439C1686.86,934.588 1685.5,934.661 1684.26,934.661C1681.96,934.661 1680.27,934.37 1679.16,933.919C1678.17,933.514 1677.5,932.571 1677.44,931.499ZM1680.21,931.351C1681.09,931.709 1682.44,931.888 1684.26,931.888C1685.42,931.888 1686.69,931.819 1688.07,931.68C1689.45,931.542 1690.44,931.432 1691.02,931.351L1689.63,909.329L1702.42,906.937L1701.82,898.148L1689.22,900.15L1688.83,892.532L1705.62,889.749L1705.01,879.129L1675.42,883.548L1674.81,895.145L1678.23,894.534L1680.21,931.351Z" style="fill:url(#_Linear5);"/>
            <path d="M1718.32,929.129L1707.31,929.739L1706.72,903.543L1703.11,904.349L1704.31,898.343L1716.71,893.143L1718.32,929.129ZM1710.31,878.348C1711.47,878.348 1712.46,878.539 1713.3,878.922C1714.14,879.304 1714.83,879.768 1715.37,880.313C1715.9,880.858 1716.27,881.334 1716.46,881.741C1716.66,882.181 1716.76,882.661 1716.76,883.182C1716.76,883.979 1716.59,884.789 1716.24,885.611C1715.9,886.433 1715.49,887.137 1715,887.723C1714.51,888.309 1714.05,888.651 1713.61,888.748C1712.76,888.878 1712.13,888.944 1711.7,888.944C1710.63,888.944 1709.69,888.756 1708.89,888.382C1708.1,888.008 1707.46,887.462 1706.99,886.746C1706.52,886.03 1706.23,885.192 1706.11,884.232C1706.11,882.848 1706.45,881.554 1707.12,880.35C1707.8,879.145 1708.86,878.478 1710.31,878.348Z" style="fill:rgb(255,220,0);fill-rule:nonzero;"/>
            <path d="M1713.21,891.603C1712.58,891.681 1712.07,891.716 1711.7,891.716C1710.18,891.716 1708.85,891.424 1707.72,890.892C1706.44,890.293 1705.43,889.417 1704.68,888.272C1703.98,887.213 1703.53,885.979 1703.36,884.558C1703.35,884.45 1703.34,884.341 1703.34,884.232C1703.34,882.365 1703.8,880.619 1704.71,878.994C1705.85,876.962 1707.62,875.806 1710.06,875.586C1710.14,875.579 1710.23,875.575 1710.31,875.575C1711.91,875.575 1713.29,875.869 1714.45,876.399C1715.63,876.936 1716.59,877.602 1717.34,878.367C1718.15,879.188 1718.67,879.929 1718.96,880.542C1718.98,880.566 1718.99,880.591 1719,880.615C1719.35,881.399 1719.53,882.253 1719.53,883.182C1719.53,884.328 1719.3,885.494 1718.8,886.676C1718.35,887.776 1717.78,888.713 1717.13,889.498C1716.83,889.857 1716.53,890.16 1716.22,890.412C1716.9,890.293 1717.6,890.426 1718.19,890.8C1718.96,891.285 1719.44,892.113 1719.48,893.019L1721.09,929.005C1721.16,930.523 1719.99,931.813 1718.47,931.898L1707.46,932.508C1706.71,932.55 1705.98,932.285 1705.42,931.775C1704.87,931.265 1704.55,930.552 1704.54,929.801L1704.03,906.985L1703.71,907.055C1702.8,907.259 1701.84,906.987 1701.17,906.332C1700.5,905.676 1700.21,904.727 1700.39,903.807L1701.59,897.801C1701.77,896.897 1702.38,896.142 1703.23,895.786L1713.21,891.603ZM1718.32,929.129L1716.71,893.143L1704.31,898.343L1703.11,904.349L1706.72,903.543L1707.31,929.739L1718.32,929.129ZM1710.31,878.348C1708.86,878.478 1707.8,879.145 1707.12,880.35C1706.45,881.554 1706.11,882.848 1706.11,884.232C1706.23,885.192 1706.52,886.03 1706.99,886.746C1707.46,887.462 1708.1,888.008 1708.89,888.382C1709.69,888.756 1710.63,888.944 1711.7,888.944C1712.13,888.944 1712.76,888.878 1713.61,888.748C1714.05,888.651 1714.51,888.309 1715,887.723C1715.49,887.137 1715.9,886.433 1716.24,885.611C1716.59,884.789 1716.76,883.979 1716.76,883.182C1716.76,882.661 1716.66,882.181 1716.46,881.741C1716.27,881.334 1715.9,880.858 1715.37,880.313C1714.83,879.768 1714.14,879.304 1713.3,878.922C1712.46,878.539 1711.47,878.348 1710.31,878.348Z" style="fill:url(#_Linear6);"/>
            <path d="M1735.51,911.38L1735.41,906.131C1734.37,906.131 1733.67,905.976 1733.31,905.667C1732.95,905.358 1732.77,904.902 1732.77,904.3C1732.77,903.633 1732.9,902.945 1733.15,902.237C1733.4,901.529 1733.61,901.012 1733.77,900.687C1732.55,900.898 1731.44,901.346 1730.44,902.029C1729.44,902.713 1728.64,903.535 1728.05,904.495C1727.45,905.456 1727.16,906.4 1727.16,907.327C1727.16,908.841 1727.86,910.045 1729.26,910.941C1730.09,911.478 1731.23,911.746 1732.7,911.746C1733.66,911.746 1734.6,911.624 1735.51,911.38ZM1744.42,924.149L1744.42,926.883C1744.42,930.008 1744.28,932.925 1743.99,935.635C1743.71,938.345 1743.12,940.246 1742.22,941.336C1740.93,942.931 1739.32,944.29 1737.37,945.413C1735.43,946.536 1733.17,947.098 1730.6,947.098C1728.95,947.098 1727.16,946.78 1725.2,946.146C1723.3,945.511 1721.81,944.685 1720.72,943.668C1719.64,942.65 1718.88,941.531 1718.43,940.311C1717.98,939.09 1717.76,937.796 1717.76,936.429C1717.76,934.655 1718.01,933.023 1718.53,931.534C1719.04,930.045 1719.47,928.983 1719.81,928.348L1727.82,933.548C1727.75,933.939 1727.72,934.215 1727.72,934.378C1727.72,935.371 1728.07,936.156 1728.78,936.734C1729.49,937.312 1730.33,937.601 1731.31,937.601C1732.17,937.601 1732.93,937.353 1733.59,936.856C1734.25,936.36 1734.66,935.656 1734.82,934.744C1735.02,933.654 1735.12,932.254 1735.12,930.545C1735.12,928.445 1734.96,926.281 1734.65,924.051C1732.62,925.044 1730.53,925.54 1728.4,925.54C1727,925.54 1725.69,925.329 1724.46,924.905C1723.23,924.482 1722.17,923.913 1721.27,923.196C1719.83,921.992 1718.69,920.368 1717.88,918.326C1717.07,916.283 1716.66,914.123 1716.66,911.844C1716.66,907.921 1717.79,904.756 1720.05,902.347C1723.98,898.18 1728.11,896.097 1732.45,896.097C1733.84,896.097 1735.12,896.276 1736.31,896.634L1743.81,892.947L1744.42,924.149Z" style="fill:rgb(255,220,0);fill-rule:nonzero;"/>
            <path d="M1719.82,925.575C1719.72,925.505 1719.63,925.434 1719.54,925.362C1719.53,925.351 1719.51,925.34 1719.5,925.329C1717.72,923.847 1716.31,921.865 1715.3,919.352C1714.36,916.986 1713.89,914.484 1713.89,911.844C1713.89,907.128 1715.31,903.345 1718.03,900.449L1718.03,900.446C1722.58,895.621 1727.42,893.324 1732.45,893.324C1733.71,893.324 1734.89,893.449 1736.01,893.693L1742.58,890.459C1743.43,890.041 1744.44,890.086 1745.25,890.579C1746.06,891.073 1746.56,891.945 1746.58,892.893L1747.19,924.094C1747.19,924.112 1747.19,924.131 1747.19,924.149L1747.19,926.883C1747.19,930.111 1747.04,933.126 1746.75,935.925C1746.39,939.344 1745.5,941.698 1744.38,943.081C1742.88,944.93 1741.02,946.512 1738.76,947.814C1736.42,949.168 1733.7,949.871 1730.6,949.871C1728.69,949.871 1726.61,949.518 1724.35,948.783C1724.34,948.781 1724.33,948.778 1724.33,948.776C1721.98,947.994 1720.16,946.942 1718.83,945.688C1717.4,944.351 1716.41,942.869 1715.83,941.265C1715.27,939.744 1714.99,938.133 1714.99,936.429C1714.99,934.327 1715.3,932.396 1715.9,930.631C1716.49,928.947 1716.98,927.751 1717.37,927.033C1717.73,926.351 1718.37,925.854 1719.12,925.662C1719.35,925.603 1719.58,925.574 1719.82,925.575ZM1744.42,924.149L1743.81,892.947L1736.31,896.634C1735.12,896.276 1733.84,896.097 1732.45,896.097C1728.11,896.097 1723.98,898.18 1720.05,902.347C1717.79,904.756 1716.66,907.921 1716.66,911.844C1716.66,914.123 1717.07,916.283 1717.88,918.326C1718.69,920.368 1719.83,921.992 1721.27,923.196C1722.17,923.913 1723.23,924.482 1724.46,924.905C1725.69,925.329 1727,925.54 1728.4,925.54C1730.53,925.54 1732.62,925.044 1734.65,924.051C1734.96,926.281 1735.12,928.445 1735.12,930.545C1735.12,932.254 1735.02,933.654 1734.82,934.744C1734.66,935.656 1734.25,936.36 1733.59,936.856C1732.93,937.353 1732.17,937.601 1731.31,937.601C1730.33,937.601 1729.49,937.312 1728.78,936.734C1728.07,936.156 1727.72,935.371 1727.72,934.378C1727.72,934.215 1727.75,933.939 1727.82,933.548L1719.81,928.348C1719.47,928.983 1719.04,930.045 1718.53,931.534C1718.01,933.023 1717.76,934.655 1717.76,936.429C1717.76,937.796 1717.98,939.09 1718.43,940.311C1718.88,941.531 1719.64,942.65 1720.72,943.668C1721.81,944.685 1723.3,945.511 1725.2,946.146C1727.16,946.78 1728.95,947.098 1730.6,947.098C1733.17,947.098 1735.43,946.536 1737.37,945.413C1739.32,944.29 1740.93,942.931 1742.22,941.336C1743.12,940.246 1743.71,938.345 1743.99,935.635C1744.28,932.925 1744.42,930.008 1744.42,926.883L1744.42,924.149ZM1735.51,911.38C1734.6,911.624 1733.66,911.746 1732.7,911.746C1731.23,911.746 1730.09,911.478 1729.26,910.941C1727.86,910.045 1727.16,908.841 1727.16,907.327C1727.16,906.4 1727.45,905.456 1728.05,904.495C1728.64,903.535 1729.44,902.713 1730.44,902.029C1731.44,901.346 1732.55,900.898 1733.77,900.687C1733.61,901.012 1733.4,901.529 1733.15,902.237C1732.9,902.945 1732.77,903.633 1732.77,904.3C1732.77,904.902 1732.95,905.358 1733.31,905.667C1733.67,905.976 1734.37,906.131 1735.41,906.131L1735.51,911.38ZM1732.69,908.973C1732.68,908.663 1732.68,908.451 1732.68,908.451C1732.17,908.255 1731.78,908.013 1731.5,907.766C1730.98,907.321 1730.57,906.773 1730.32,906.106C1730.08,906.522 1729.93,906.922 1729.93,907.327C1729.93,907.877 1730.24,908.279 1730.75,908.605C1730.76,908.607 1730.76,908.61 1730.76,908.613C1731.22,908.911 1731.88,908.973 1732.69,908.973ZM1723.72,927.583L1729.33,931.223C1730.25,931.823 1730.73,932.916 1730.55,934.004C1730.52,934.181 1730.49,934.304 1730.49,934.378C1730.49,934.46 1730.48,934.538 1730.53,934.586C1730.75,934.761 1731.01,934.828 1731.31,934.828C1731.54,934.828 1731.75,934.774 1731.92,934.641C1732.04,934.556 1732.07,934.414 1732.09,934.257L1732.09,934.255C1732.27,933.292 1732.34,932.055 1732.34,930.545C1732.34,929.66 1732.31,928.763 1732.26,927.854C1730.99,928.161 1729.7,928.313 1728.4,928.313C1726.74,928.313 1725.18,928.066 1723.72,927.583Z" style="fill:url(#_Linear7);"/>
            <path d="M1753.62,896.341C1756.54,895.381 1759.05,894.901 1761.17,894.901C1763.1,894.901 1764.79,895.316 1766.22,896.146C1767.08,896.65 1768.05,897.411 1769.12,898.428C1770.2,899.446 1771.15,900.565 1771.97,901.785C1772.79,903.006 1773.34,904.194 1773.62,905.35C1774.48,908.817 1774.91,911.844 1774.91,914.432C1774.91,915.799 1774.82,917.235 1774.64,918.741C1774.46,920.246 1774.19,922.179 1773.81,924.539L1763.61,925.15C1763.64,924.336 1763.66,923.164 1763.66,921.634C1763.66,915.254 1762.78,909.826 1761.02,905.35C1760.34,903.673 1759.67,902.835 1759.02,902.835C1758.17,902.835 1757.24,904.007 1756.21,906.351C1755.97,906.92 1755.77,907.571 1755.61,908.304C1755.46,909.036 1755.34,909.858 1755.27,910.77C1755.2,911.681 1755.16,912.755 1755.16,913.992C1755.16,916.499 1755.31,919.681 1755.6,923.538L1743.61,924.93C1743.48,923.986 1743.4,922.879 1743.37,921.61C1743.32,920.34 1743.29,919.03 1743.27,917.679C1743.24,916.328 1743.18,915.095 1743.11,913.98C1743.04,912.865 1742.89,911.6 1742.66,910.184L1742,878.348L1752.01,877.127L1753.62,896.341Z" style="fill:rgb(255,220,0);fill-rule:nonzero;"/>
            <path d="M1758.8,907.346C1758.79,907.381 1758.77,907.417 1758.75,907.452C1758.58,907.868 1758.44,908.343 1758.32,908.877C1758.19,909.505 1758.1,910.21 1758.03,910.992C1757.97,911.84 1757.93,912.841 1757.93,913.992C1757.93,916.444 1758.08,919.556 1758.36,923.328C1758.48,924.812 1757.4,926.121 1755.92,926.293L1743.93,927.684C1742.43,927.858 1741.07,926.803 1740.87,925.309C1740.72,924.282 1740.63,923.079 1740.6,921.699C1740.55,920.417 1740.51,919.095 1740.5,917.731C1740.47,916.428 1740.41,915.238 1740.35,914.162C1740.28,913.123 1740.13,911.944 1739.92,910.624C1739.9,910.498 1739.89,910.37 1739.89,910.241L1739.23,878.405C1739.2,876.982 1740.25,875.768 1741.66,875.595L1751.67,874.375C1752.42,874.284 1753.18,874.501 1753.76,874.976C1754.35,875.452 1754.71,876.145 1754.77,876.895L1756.1,892.764C1757.97,892.335 1759.66,892.128 1761.17,892.128C1763.64,892.128 1765.78,892.687 1767.61,893.747L1767.62,893.752C1768.63,894.343 1769.77,895.224 1771.03,896.415C1772.25,897.573 1773.33,898.847 1774.27,900.237C1775.29,901.758 1775.96,903.247 1776.31,904.687C1777.23,908.406 1777.68,911.655 1777.68,914.432C1777.68,915.903 1777.59,917.448 1777.4,919.068C1777.21,920.602 1776.93,922.57 1776.55,924.974C1776.35,926.259 1775.28,927.229 1773.98,927.307L1763.77,927.917C1762.99,927.964 1762.23,927.678 1761.67,927.129C1761.11,926.581 1760.81,925.822 1760.84,925.039C1760.87,924.251 1760.88,923.116 1760.88,921.634C1760.88,916.118 1760.2,911.358 1758.8,907.346ZM1753.62,896.341L1752.01,877.127L1742,878.348L1742.66,910.184C1742.89,911.6 1743.04,912.865 1743.11,913.98C1743.18,915.095 1743.24,916.328 1743.27,917.679C1743.29,919.03 1743.32,920.34 1743.37,921.61C1743.4,922.879 1743.48,923.986 1743.61,924.93L1755.6,923.538C1755.31,919.681 1755.16,916.499 1755.16,913.992C1755.16,912.755 1755.2,911.681 1755.27,910.77C1755.34,909.858 1755.46,909.036 1755.61,908.304C1755.77,907.571 1755.97,906.92 1756.21,906.351C1757.24,904.007 1758.17,902.835 1759.02,902.835C1759.67,902.835 1760.34,903.673 1761.02,905.35C1762.78,909.826 1763.66,915.254 1763.66,921.634C1763.66,923.164 1763.64,924.336 1763.61,925.15L1773.81,924.539C1774.19,922.179 1774.46,920.246 1774.64,918.741C1774.82,917.235 1774.91,915.799 1774.91,914.432C1774.91,911.844 1774.48,908.817 1773.62,905.35C1773.34,904.194 1772.79,903.006 1771.97,901.785C1771.15,900.565 1770.2,899.446 1769.12,898.428C1768.05,897.411 1767.08,896.65 1766.22,896.146C1764.79,895.316 1763.1,894.901 1761.17,894.901C1759.05,894.901 1756.54,895.381 1753.62,896.341Z" style="fill:url(#_Linear8);"/>
            <path d="M1777.21,881.741L1787.88,876.932L1787.7,893.338L1795.66,893.533L1795.66,902.933L1787.41,903.03C1787.12,905.342 1786.97,907.514 1786.97,909.549C1786.97,911.242 1787.07,912.641 1787.26,913.748C1787.43,914.66 1787.83,915.36 1788.49,915.848C1789.14,916.336 1789.89,916.58 1790.76,916.58C1791.72,916.58 1792.56,916.295 1793.28,915.726C1794.01,915.156 1794.37,914.375 1794.37,913.382C1794.37,913.236 1794.34,912.951 1794.27,912.528L1802.26,907.327C1802.6,907.962 1803.02,909.028 1803.54,910.526C1804.05,912.023 1804.31,913.659 1804.31,915.433C1804.31,917.565 1803.74,919.494 1802.62,921.219C1801.5,922.944 1799.58,924.254 1796.86,925.15C1794.95,925.768 1793.16,926.077 1791.46,926.077C1788.91,926.077 1786.66,925.516 1784.71,924.393C1782.77,923.27 1781.15,921.919 1779.87,920.34C1779.27,919.608 1778.8,918.395 1778.46,916.702C1778.13,915.01 1777.91,913.244 1777.82,911.404C1777.72,909.565 1777.67,907.726 1777.67,905.887L1777.67,903.128L1770.47,903.348L1768.66,892.337L1777.77,892.947L1777.21,881.741Z" style="fill:rgb(255,220,0);fill-rule:nonzero;"/>
            <path d="M1774.9,905.987L1770.55,906.119C1769.16,906.162 1767.96,905.169 1767.73,903.797L1765.92,892.786C1765.79,891.951 1766.04,891.099 1766.61,890.472C1767.18,889.846 1768,889.514 1768.85,889.571L1774.84,889.972L1774.44,881.88C1774.38,880.741 1775.03,879.682 1776.07,879.214L1786.74,874.404C1787.6,874.015 1788.6,874.093 1789.39,874.611C1790.18,875.128 1790.66,876.014 1790.65,876.961L1790.51,890.633L1795.73,890.761C1797.24,890.798 1798.43,892.029 1798.43,893.533L1798.43,902.933C1798.43,904.451 1797.21,905.687 1795.7,905.705C1795.7,905.705 1789.91,905.774 1789.91,905.774C1789.8,907.084 1789.74,908.342 1789.74,909.549C1789.74,911.046 1789.82,912.285 1790,913.265C1790.02,913.413 1790.04,913.55 1790.15,913.63C1790.32,913.759 1790.53,913.807 1790.76,913.807C1791.06,913.807 1791.34,913.729 1791.57,913.546C1791.62,913.51 1791.6,913.446 1791.6,913.382C1791.6,913.403 1791.6,913.456 1791.6,913.456C1791.6,913.456 1791.57,913.178 1791.53,912.949C1791.37,911.873 1791.85,910.799 1792.76,910.204L1800.74,905.004C1801.39,904.581 1802.19,904.449 1802.94,904.641C1803.69,904.832 1804.33,905.33 1804.7,906.013C1805.08,906.731 1805.58,907.933 1806.16,909.627C1806.77,911.399 1807.08,913.333 1807.08,915.433C1807.08,918.123 1806.36,920.555 1804.94,922.732C1803.53,924.911 1801.16,926.652 1797.73,927.783L1797.72,927.787C1795.51,928.503 1793.42,928.85 1791.46,928.85C1788.38,928.85 1785.67,928.149 1783.33,926.794C1781.07,925.493 1779.21,923.92 1777.73,922.101C1776.91,921.115 1776.19,919.518 1775.74,917.239C1775.38,915.421 1775.15,913.526 1775.05,911.551C1774.95,909.697 1774.9,907.842 1774.9,905.987ZM1777.21,881.741L1777.77,892.947L1768.66,892.337L1770.47,903.348L1777.67,903.128L1777.67,905.887C1777.67,907.726 1777.72,909.565 1777.82,911.404C1777.91,913.244 1778.13,915.01 1778.46,916.702C1778.8,918.395 1779.27,919.608 1779.87,920.34C1781.15,921.919 1782.77,923.27 1784.71,924.393C1786.66,925.516 1788.91,926.077 1791.46,926.077C1793.16,926.077 1794.95,925.768 1796.86,925.15C1799.58,924.254 1801.5,922.944 1802.62,921.219C1803.74,919.494 1804.31,917.565 1804.31,915.433C1804.31,913.659 1804.05,912.023 1803.54,910.526C1803.02,909.028 1802.6,907.962 1802.26,907.327L1794.27,912.528C1794.34,912.951 1794.37,913.236 1794.37,913.382C1794.37,914.375 1794.01,915.156 1793.28,915.726C1792.56,916.295 1791.72,916.58 1790.76,916.58C1789.89,916.58 1789.14,916.336 1788.49,915.848C1787.83,915.36 1787.43,914.66 1787.26,913.748C1787.07,912.641 1786.97,911.242 1786.97,909.549C1786.97,907.514 1787.12,905.342 1787.41,903.03L1795.66,902.933L1795.66,893.533L1787.7,893.338L1787.88,876.932L1777.21,881.741Z" style="fill:url(#_Linear9);"/>
        </g>
    </g>
    <defs>
        <linearGradient id="_Linear1" x1="0" y1="0" x2="1" y2="0" gradientUnits="userSpaceOnUse" gradientTransform="matrix(1.52677,54.7386,-26.9758,0.752408,1661.9,876.932)"><stop offset="0" style="stop-color:rgb(3,1,141);stop-opacity:1"/><stop offset="1" style="stop-color:rgb(152,50,204);stop-opacity:1"/></linearGradient>
        <linearGradient id="_Linear2" x1="0" y1="0" x2="1" y2="0" gradientUnits="userSpaceOnUse" gradientTransform="matrix(1.52677,54.7386,-26.9758,0.752408,1661.9,876.932)"><stop offset="0" style="stop-color:rgb(3,1,141);stop-opacity:1"/><stop offset="1" style="stop-color:rgb(152,50,204);stop-opacity:1"/></linearGradient>
        <linearGradient id="_Linear3" x1="0" y1="0" x2="1" y2="0" gradientUnits="userSpaceOnUse" gradientTransform="matrix(1.52677,54.7386,-26.9758,0.752408,1661.9,876.932)"><stop offset="0" style="stop-color:rgb(3,1,141);stop-opacity:1"/><stop offset="1" style="stop-color:rgb(152,50,204);stop-opacity:1"/></linearGradient>
        <linearGradient id="_Linear4" x1="0" y1="0" x2="1" y2="0" gradientUnits="userSpaceOnUse" gradientTransform="matrix(1.52677,54.7386,-26.9758,0.752408,1661.9,876.932)"><stop offset="0" style="stop-color:rgb(3,1,141);stop-opacity:1"/><stop offset="1" style="stop-color:rgb(152,50,204);stop-opacity:1"/></linearGradient>
        <linearGradient id="_Linear5" x1="0" y1="0" x2="1" y2="0" gradientUnits="userSpaceOnUse" gradientTransform="matrix(1.52677,54.7386,-26.9758,0.752408,1661.9,876.932)"><stop offset="0" style="stop-color:rgb(3,1,141);stop-opacity:1"/><stop offset="1" style="stop-color:rgb(152,50,204);stop-opacity:1"/></linearGradient>
        <linearGradient id="_Linear6" x1="0" y1="0" x2="1" y2="0" gradientUnits="userSpaceOnUse" gradientTransform="matrix(1.52677,54.7386,-26.9758,0.752408,1661.9,876.932)"><stop offset="0" style="stop-color:rgb(3,1,141);stop-opacity:1"/><stop offset="1" style="stop-color:rgb(152,50,204);stop-opacity:1"/></linearGradient>
        <linearGradient id="_Linear7" x1="0" y1="0" x2="1" y2="0" gradientUnits="userSpaceOnUse" gradientTransform="matrix(1.52677,54.7386,-26.9758,0.752408,1661.9,876.932)"><stop offset="0" style="stop-color:rgb(3,1,141);stop-opacity:1"/><stop offset="1" style="stop-color:rgb(152,50,204);stop-opacity:1"/></linearGradient>
        <linearGradient id="_Linear8" x1="0" y1="0" x2="1" y2="0" gradientUnits="userSpaceOnUse" gradientTransform="matrix(1.52677,54.7386,-26.9758,0.752408,1661.9,876.932)"><stop offset="0" style="stop-color:rgb(3,1,141);stop-opacity:1"/><stop offset="1" style="stop-color:rgb(152,50,204);stop-opacity:1"/></linearGradient>
        <linearGradient id="_Linear9" x1="0" y1="0" x2="1" y2="0" gradientUnits="userSpaceOnUse" gradientTransform="matrix(1.52677,54.7386,-26.9758,0.752408,1661.9,876.932)"><stop offset="0" style="stop-color:rgb(3,1,141);stop-opacity:1"/><stop offset="1" style="stop-color:rgb(152,50,204);stop-opacity:1"/></linearGradient>
    </defs>
</svg>
