<?xml version="1.0" encoding="utf-8"?>
<!-- Generator: Adobe Illustrator 16.0.0, SVG Export Plug-In . SVG Version: 6.00 Build 0)  -->
<!DOCTYPE svg PUBLIC "-//W3C//DTD SVG 1.1//EN" "http://www.w3.org/Graphics/SVG/1.1/DTD/svg11.dtd">
<svg version="1.1" id="Layer_1" xmlns:serif="http://www.serif.com/"
	 xmlns="http://www.w3.org/2000/svg" xmlns:xlink="http://www.w3.org/1999/xlink" x="0px" y="0px" width="1171px"
	 height="357.534px" viewBox="53.5 200.966 1171 357.534" enable-background="new 53.5 200.966 1171 357.534" xml:space="preserve">
<g>
	<defs>
		<path id="SVGID_1_" d="M309.833,232.299c0,0,44,16.667,58,14.667s82,4.667,82,4.667H486.5c0,0,78,2,80,0
			s120.667,0.889,120.667,0.889l120.667-23.556l64.666,16.667l61.334-4.889l47.333-11.778l130.667-20l86.891,17.333l37.109,70
			l-10,157.333c0,0-65.333,80.998-68,80.998s-176.666,53.002-186,52.335s-238.666-5.333-242-5.333s-140.667,18.666-148.667,17.333
			s-245.333-36-245.333-36s-179.333-27.334-184-32.667s-84.667-38-84.667-59.333s-41.333-124.666-34-143.333s16.666-80,27.333-84
			s110.667-42.667,113.333-42.667S309.833,232.299,309.833,232.299z"/>
	</defs>
	<clipPath id="SVGID_2_">
		<use xlink:href="#SVGID_1_"  overflow="visible"/>
	</clipPath>
	<g transform="matrix(1,0,0,1,-391.305,-235.724)" clip-path="url(#SVGID_2_)">
		<g>
			<g transform="matrix(1,-0,-0,1,391.305,235.724)">
				<g>
					
						<image overflow="visible" enable-background="new    " width="2975" height="1151" id="_Image1" xlink:href="21EB10A.png"  transform="matrix(0.3756 0 0 0.3756 81.2739 102.2993)">
					</image>
				</g>
			</g>
		</g>
	</g>
</g>
</svg>
